<svg id="Laag_1" data-name="Laag 1" xmlns="http://www.w3.org/2000/svg" viewBox="0 0 204.51 47.77"><path d="M35.7,5.81a16,16,0,0,1,5.22,10.3h-6a12.47,12.47,0,0,0-4-6.94c-2-1.71-4.79-2.56-8.38-2.56a13.34,13.34,0,0,0-10.63,4.71q-4,4.71-4,14.44,0,8,3.65,12.93t10.9,5a11.45,11.45,0,0,0,10.16-5.21,20.17,20.17,0,0,0,2.76-7.22h6a20.56,20.56,0,0,1-5.24,12Q30.77,49,21.71,49A18.87,18.87,0,0,1,8.59,44.26q-7-6.33-7-19.55,0-10,5.25-16.46,5.67-7,15.65-7Q31,1.27,35.7,5.81Z" transform="translate(-1.6 -1.27)"/><path d="M71.07,18.09c2.92,2.83,4.38,7,4.38,12.51q0,8-3.86,13.2T59.61,49A13.47,13.47,0,0,1,48.85,44.4q-4-4.6-4-12.38,0-8.33,4.2-13.26a14.08,14.08,0,0,1,11.28-4.93A14.8,14.8,0,0,1,71.07,18.09Zm-3.45,22a20.86,20.86,0,0,0,2-9.29,16.78,16.78,0,0,0-1.46-7.52q-2.32-4.56-8-4.56-5,0-7.32,3.88a18.1,18.1,0,0,0-2.29,9.37,15.77,15.77,0,0,0,2.29,8.79q2.28,3.51,7.26,3.51Q65.59,44.23,67.62,40.05Z" transform="translate(-1.6 -1.27)"/><path d="M80.62,14.79H85.9v4.69a14.78,14.78,0,0,1,5-4.17,13.26,13.26,0,0,1,5.83-1.26q7,0,9.5,4.9a17.39,17.39,0,0,1,1.36,7.69v21.2h-5.65V27a11.26,11.26,0,0,0-.89-4.88q-1.48-3.07-5.37-3.08a10.82,10.82,0,0,0-3.24.4,8.37,8.37,0,0,0-4,2.71,8.18,8.18,0,0,0-1.81,3.38,22.68,22.68,0,0,0-.42,5V47.84H80.62Z" transform="translate(-1.6 -1.27)"/><path d="M114.92,5.56h5.61v9.23h5.28v4.53h-5.28V40.9a2.32,2.32,0,0,0,1.18,2.31,4.91,4.91,0,0,0,2.16.34l.86,0c.31,0,.67-.05,1.08-.1v4.41a11.69,11.69,0,0,1-2,.4,19.32,19.32,0,0,1-2.24.13c-2.59,0-4.35-.67-5.27-2a8.82,8.82,0,0,1-1.39-5.17V19.32h-4.48V14.79h4.48Z" transform="translate(-1.6 -1.27)"/><path d="M147.71,27.84a3,3,0,0,0,2.56-1.6,4.9,4.9,0,0,0,.37-2.14,4.55,4.55,0,0,0-2-4.14,10.86,10.86,0,0,0-5.78-1.28c-2.89,0-4.95.78-6.16,2.35a7.72,7.72,0,0,0-1.32,3.88h-5.19q.15-6.14,4-8.53A16.21,16.21,0,0,1,143,14a18,18,0,0,1,9.47,2.23,7.54,7.54,0,0,1,3.6,6.91v19a2.41,2.41,0,0,0,.36,1.39,1.71,1.71,0,0,0,1.5.53c.24,0,.52,0,.83,0s.64-.08,1-.14V48a16.7,16.7,0,0,1-2,.46,14.8,14.8,0,0,1-1.85.09,4.6,4.6,0,0,1-4.17-2,7.89,7.89,0,0,1-.95-3.06,14.14,14.14,0,0,1-4.88,3.86,15.07,15.07,0,0,1-7,1.63,10.42,10.42,0,0,1-7.52-2.79,9.27,9.27,0,0,1-2.92-7,9,9,0,0,1,2.87-7.12A13.74,13.74,0,0,1,138.85,29Zm-11.7,15a6.53,6.53,0,0,0,4.17,1.39,12.62,12.62,0,0,0,5.68-1.36,7.62,7.62,0,0,0,4.63-7.36V31a9.31,9.31,0,0,1-2.62,1.09,22.84,22.84,0,0,1-3.14.61l-3.36.44a12.78,12.78,0,0,0-4.54,1.26,4.89,4.89,0,0,0-2.57,4.62A4.54,4.54,0,0,0,136,42.84Z" transform="translate(-1.6 -1.27)"/><path d="M185.2,16.55q3.51,2.72,4.21,9.35H184a10,10,0,0,0-2.25-5.08q-1.75-2-5.65-2-5.31,0-7.59,5.18A20.49,20.49,0,0,0,167,32.27a15.56,15.56,0,0,0,2.1,8.35,8.15,8.15,0,0,0,12.08,1.29A11.55,11.55,0,0,0,184,36.14h5.4c-.61,4.39-2.16,7.59-4.62,9.62a14.44,14.44,0,0,1-9.48,3A12.65,12.65,0,0,1,165,44.06a18.14,18.14,0,0,1-3.86-11.84q0-8.7,4.23-13.54a13.67,13.67,0,0,1,10.77-4.85A14.4,14.4,0,0,1,185.2,16.55Z" transform="translate(-1.6 -1.27)"/><path d="M195.22,5.56h5.61v9.23h5.28v4.53h-5.28V40.9A2.33,2.33,0,0,0,202,43.21a5,5,0,0,0,2.16.34l.87,0c.31,0,.67-.05,1.08-.1v4.41a11.69,11.69,0,0,1-2,.4,19.45,19.45,0,0,1-2.24.13c-2.59,0-4.35-.67-5.27-2a8.82,8.82,0,0,1-1.39-5.17V19.32h-4.48V14.79h4.48Z" transform="translate(-1.6 -1.27)"/></svg>