<?xml version="1.0" encoding="utf-8"?>
<!-- Generator: Adobe Illustrator 25.4.0, SVG Export Plug-In . SVG Version: 6.00 Build 0)  -->
<svg version="1.1" id="Laag_1" xmlns="http://www.w3.org/2000/svg" xmlns:xlink="http://www.w3.org/1999/xlink" x="0px" y="0px"
	 viewBox="0 0 841.9 595.3" style="enable-background:new 0 0 841.9 595.3;" xml:space="preserve">
<style type="text/css">
	.st0{fill:#FFFFFF;}
</style>
<path class="st0" d="M518.9,17.1h93.2c-0.1,0.9-0.3,1.8-0.3,2.7c0,36.8,0,73.6,0,110.4V158h47.5v46.6h46.6c0,13.4,0,26.2,0,39
	c0,32.2-0.1,64.5,0,96.7c0,3.4-0.9,4.7-4.3,4.5c-4.1-0.2-8.2,0-12.3,0h-29.6V485h45.9v47.1h-46.3v46h-93.7V532h-46.8v46.1h-46.3V532
	h-46.9v46.2h-47.1v-46.6H239.1v-47h46v-92.9h-46.8v45.8h-93.8v-46H97.9V250.8h46.8v-46.5h140.7v-92.6h92.9V158h93.4v92.9H378v47.7
	h47.6V345h46.9v-46.7h46.6v-93.9h46.2v-46.9h-46c-0.1-1.4-0.2-2.2-0.2-3.1c0-27.2-0.1-54.4-0.1-81.7C519.1,54.2,519,35.6,518.9,17.1
	z"/>
</svg>
