<svg id="Laag_1" data-name="Laag 1" xmlns="http://www.w3.org/2000/svg" viewBox="0 0 208.35 54.46"><path d="M8.46,37a14.41,14.41,0,0,0,2,7.13q3.34,5.14,11.82,5.14a20.18,20.18,0,0,0,6.9-1.13q6-2.18,6-7.8,0-4.23-2.55-6a25,25,0,0,0-8.11-3.06l-6.77-1.59q-6.65-1.55-9.4-3.41Q3.61,23,3.61,16.57A15.11,15.11,0,0,1,8.29,5.14Q13,.67,21.57.68A22.58,22.58,0,0,1,35,4.6q5.52,3.92,5.52,12.53H34a13.28,13.28,0,0,0-2.16-6.36q-3.08-4-10.42-4-5.92,0-8.52,2.6a8.32,8.32,0,0,0-2.6,6,6,6,0,0,0,3.07,5.56c1.34.75,4.37,1.68,9.09,2.81l7,1.65a21.24,21.24,0,0,1,7.83,3.27Q42,32.28,42,39.17,42,47.75,36,51.44A26.75,26.75,0,0,1,21.8,55.13q-9.39,0-14.7-4.92T1.88,37Z" transform="translate(-1.88 -0.68)"/><path d="M68.89,30.83A3.41,3.41,0,0,0,71.81,29a5.63,5.63,0,0,0,.42-2.44,5.16,5.16,0,0,0-2.3-4.71,12.3,12.3,0,0,0-6.57-1.46q-4.95,0-7,2.68a8.89,8.89,0,0,0-1.51,4.42H48.92q.18-7,4.52-9.71A18.47,18.47,0,0,1,63.5,15.05q6.63,0,10.78,2.54c2.74,1.68,4.11,4.31,4.11,7.87V47.15a2.8,2.8,0,0,0,.4,1.59,2,2,0,0,0,1.7.59c.29,0,.6,0,1,0s.73-.09,1.13-.16V53.8a17.92,17.92,0,0,1-2.25.52,16.42,16.42,0,0,1-2.11.11,5.21,5.21,0,0,1-4.75-2.32,9,9,0,0,1-1.09-3.48A16.06,16.06,0,0,1,66.82,53a17.1,17.1,0,0,1-8,1.87,11.87,11.87,0,0,1-8.56-3.18,10.53,10.53,0,0,1-3.32-8c0-3.49,1.09-6.2,3.27-8.11A15.5,15.5,0,0,1,58.8,32.1ZM55.57,47.93a7.47,7.47,0,0,0,4.75,1.58A14.42,14.42,0,0,0,66.78,48a8.68,8.68,0,0,0,5.28-8.39V34.49a11,11,0,0,1-3,1.23,25.1,25.1,0,0,1-3.58.7l-3.83.5a14.85,14.85,0,0,0-5.17,1.43,5.6,5.6,0,0,0-2.93,5.27A5.17,5.17,0,0,0,55.57,47.93Z" transform="translate(-1.88 -0.68)"/><path d="M87.12,16h6.26v5.34a20.91,20.91,0,0,1,4.08-4,12.24,12.24,0,0,1,7.1-2.14,11.15,11.15,0,0,1,7.24,2.21,11.52,11.52,0,0,1,2.81,3.73A13.06,13.06,0,0,1,126,15.13q7.59,0,10.34,5.48a18,18,0,0,1,1.47,7.94V53.62h-6.57V27.47c0-2.51-.63-4.24-1.88-5.17a7.46,7.46,0,0,0-4.59-1.41,9.11,9.11,0,0,0-6.42,2.5q-2.68,2.49-2.69,8.33v21.9H109.2V29.05a12.75,12.75,0,0,0-.91-5.59c-1-1.76-2.76-2.64-5.38-2.64a9.28,9.28,0,0,0-6.52,2.78q-2.94,2.77-2.94,10v20H87.12Z" transform="translate(-1.88 -0.68)"/><path d="M145.45,16h6.26v5.34a20.91,20.91,0,0,1,4.08-4,12.24,12.24,0,0,1,7.1-2.14,11.15,11.15,0,0,1,7.24,2.21,11.52,11.52,0,0,1,2.81,3.73,13.06,13.06,0,0,1,11.36-5.94q7.59,0,10.33,5.48a17.85,17.85,0,0,1,1.48,7.94V53.62h-6.57V27.47c0-2.51-.63-4.24-1.88-5.17a7.46,7.46,0,0,0-4.59-1.41,9.08,9.08,0,0,0-6.42,2.5Q174,25.88,174,31.72v21.9h-6.43V29.05a12.72,12.72,0,0,0-.92-5.59q-1.44-2.64-5.37-2.64a9.32,9.32,0,0,0-6.53,2.78q-2.93,2.77-2.93,10v20h-6.33Z" transform="translate(-1.88 -0.68)"/><path d="M203.8,2h6.43V9.15H203.8Zm0,14.16h6.43V53.62H203.8Z" transform="translate(-1.88 -0.68)"/></svg>